<svg xmlns="http://www.w3.org/2000/svg" xmlns:xlink="http://www.w3.org/1999/xlink" width="16" height="16" viewBox="0 0 16 16">
    <defs>
        <path id="a" d="M0 0h7.619v14H0z"/>
        <path id="c" d="M0 0h7.619v14H0z"/>
    </defs>
    <g fill="none" fill-rule="evenodd">
        <path fill="#999" fill-rule="nonzero" d="M8 15A7 7 0 1 0 8 1a7 7 0 0 0 0 14zm0 1A8 8 0 1 1 8 0a8 8 0 0 1 0 16z"/>
        <path fill="#999" d="M1 8h14v1H1z"/>
        <g transform="translate(1 1)">
            <mask id="b" fill="#999">
                <use xlink:href="#a"/>
            </mask>
            <path fill="#999" fill-rule="nonzero" d="M15 18c6.075 0 11-4.925 11-11S21.075-4 15-4 4 .925 4 7s4.925 11 11 11zm0 1C8.373 19 3 13.627 3 7S8.373-5 15-5 27 .373 27 7s-5.373 12-12 12z" mask="url(#b)"/>
        </g>
        <g transform="matrix(-1 0 0 1 15 1)">
            <mask id="d" fill="#999">
                <use xlink:href="#c"/>
            </mask>
            <path fill="#999" fill-rule="nonzero" d="M15 18c6.075 0 11-4.925 11-11S21.075-4 15-4 4 .925 4 7s4.925 11 11 11zm0 1C8.373 19 3 13.627 3 7S8.373-5 15-5 27 .373 27 7s-5.373 12-12 12z" mask="url(#d)"/>
        </g>
    </g>
</svg>
